<svg id="Layer_1" data-name="Layer 1" xmlns="http://www.w3.org/2000/svg" viewBox="0 0 447.84 239.28"><defs><style>.cls-1{fill:#035d83;}.cls-2{fill:#bed600;}.cls-3{fill:#feffff;}</style></defs><title>GAD</title><path class="cls-1" d="M308.38,114.91a18.91,18.91,0,0,0-.44,2.22q-1.5,8.27-3,16.54c-.1.55-.11.56-.67.56h-4.87a.74.74,0,0,1-.51-.09,16.3,16.3,0,0,1,.34-2.17l2.67-15.07q1.41-7.87,2.81-15.77c.62-3.49,1.29-7,1.83-10.49a24,24,0,0,0-.3-9.66,15,15,0,0,0-7.85-9.89,29.09,29.09,0,0,0-8.8-2.85,70.6,70.6,0,0,0-13-.88c-3.28,0-6.54.15-9.8.48a132.55,132.55,0,0,0-14.54,2.34c-6.46,1.38-12.83,3.12-19.13,5.12l-1.35.41s0,0,0,0a146.82,146.82,0,0,1,26.85-8.43,117.37,117.37,0,0,1,15.5-2.23,85.43,85.43,0,0,1,9.73-.22,52.54,52.54,0,0,1,14.3,2.28,26,26,0,0,1,8.64,4.5A16.66,16.66,0,0,1,313,82.73a27.05,27.05,0,0,1-.37,8.18q-1.28,7.11-2.53,14.22-.74,4.23-1.49,8.46c0,.11-.08.22,0,.36.29-.08.44-.34.63-.53l13.3-14,2.21-2.34a.87.87,0,0,1,.67-.34h5.73s.08,0,.18.08c-.18.2-.34.39-.52.57L314.75,113.6l-.05.05c-.62.65-.59.44-.15,1.16,1.2,2,2.43,4,3.64,6l7.75,12.71a1.5,1.5,0,0,1,.31.72h-.55c-1.86,0-3.73,0-5.59,0a1,1,0,0,1-1-.58q-5.08-9-10.21-18.06A1.59,1.59,0,0,0,308.38,114.91Z"/><path class="cls-1" d="M216.88,98a20.59,20.59,0,0,1,3-1.17,16.55,16.55,0,0,1,7.94-.29,10.3,10.3,0,0,1,7.62,6.87,19.55,19.55,0,0,1,1.11,8,30.8,30.8,0,0,1-2.86,11.59,21.2,21.2,0,0,1-6.79,8.53,18.26,18.26,0,0,1-9.21,3.41,23.65,23.65,0,0,1-9.6-1,15.29,15.29,0,0,1-2.73-1.25.78.78,0,0,1-.43-1c.48-2.58.93-5.16,1.38-7.74l2.19-12.47q1.35-7.59,2.69-15.2,1-5.88,2.05-11.77a1.56,1.56,0,0,1,.86-1.25c1.79-1,3.54-2,5.3-3a1.64,1.64,0,0,1,.72-.31C219.05,85.87,218,91.83,216.88,98Zm13.59,12a15,15,0,0,0-.86-5.48,6.75,6.75,0,0,0-5.34-4.65,12.53,12.53,0,0,0-7.59,1.1.72.72,0,0,0-.44.59c-.36,2.11-.74,4.22-1.12,6.33l-3.69,20.83c-.24,1.33-.22,1.37,1.1,1.72a14.86,14.86,0,0,0,4,.39,11.08,11.08,0,0,0,7.56-2.93,14.33,14.33,0,0,0,3-4A33.1,33.1,0,0,0,230.47,109.93Z"/><path class="cls-1" d="M131.63,107.46h14.18c-.18,1.06-.34,2-.53,3-.07.37,0,.86-.27,1.08s-.74.07-1.12.07H131.5c-.62,0-.63,0-.73.59q-1.58,8.69-3.13,17.38a1.52,1.52,0,0,0,0,.22H145a8.69,8.69,0,0,1-.22,1.62l-.39,2.4c0,.28-.16.43-.47.39H124.33a5.61,5.61,0,0,1-.92-.06,2.81,2.81,0,0,1-2.43-2.91,13.92,13.92,0,0,1,.34-2.33q2.06-11.91,4.14-23.82c.87-5,1.74-9.91,2.58-14.86a4.67,4.67,0,0,1,2-3.18,4.16,4.16,0,0,1,2.43-.75h18a.71.71,0,0,1,.47.09c-.15.91-.3,1.85-.46,2.79-.06.37-.15.74-.19,1.12s-.18.4-.47.39-.76,0-1.14,0H135.46a3.09,3.09,0,0,1-.43,0c-.37,0-.54.08-.6.49-.13,1-.34,1.92-.5,2.89l-2.25,13C131.66,107.16,131.65,107.27,131.63,107.46Z"/><path class="cls-1" d="M267,134.21l.91-5.14q1.39-7.77,2.8-15.55,1.29-7.17,2.57-14.36a.76.76,0,0,1,.55-.65,30.52,30.52,0,0,1,7.2-2,40.94,40.94,0,0,1,7.42-.47,16,16,0,0,1,5.6,1,7.84,7.84,0,0,1,5.19,7.51,21.75,21.75,0,0,1-.51,4.4q-1.4,8-2.81,16-.73,4.23-1.48,8.45c-.12.67-.13.67-.81.69l-4.65.14a2.42,2.42,0,0,1-.8,0,15.49,15.49,0,0,1,.31-2.06c1.12-6.38,2.27-12.77,3.37-19.15.39-2.26.88-4.5,1.12-6.77a6.55,6.55,0,0,0-.14-2.21,4.76,4.76,0,0,0-4.32-3.8,18.52,18.52,0,0,0-9.15.95c-.36.13-.4.37-.45.65-.26,1.4-.5,2.81-.75,4.22l-2.4,13.59q-1.25,7-2.48,14c-.1.62-.1.63-.69.63h-5.16Z"/><path class="cls-1" d="M173.37,120.92a35.22,35.22,0,0,1,2.65-13.1,21.45,21.45,0,0,1,5.55-8.16,15.22,15.22,0,0,1,10.85-3.85,15,15,0,0,1,3.88.59,9.57,9.57,0,0,1,6.33,5.86,17,17,0,0,1,1.16,6.15,36.75,36.75,0,0,1-1.58,11.08,26.35,26.35,0,0,1-4.31,8.9,15.46,15.46,0,0,1-9.48,6.07,16.28,16.28,0,0,1-6.26,0,9.9,9.9,0,0,1-7.86-7A19.85,19.85,0,0,1,173.37,120.92Zm6.09-.21c0,.59,0,1,0,1.45a12.94,12.94,0,0,0,.95,5,5.25,5.25,0,0,0,3.63,3.07,8.09,8.09,0,0,0,3.06.13,8.55,8.55,0,0,0,6-3.81,18.8,18.8,0,0,0,2.3-4.59,47.19,47.19,0,0,0,1.85-7.7,30.58,30.58,0,0,0,.54-6.61,12.18,12.18,0,0,0-.83-4.26,5.27,5.27,0,0,0-4.25-3.42,8.06,8.06,0,0,0-6.94,2.09,14.29,14.29,0,0,0-3.52,5.41A42.38,42.38,0,0,0,179.46,120.71Z"/><path class="cls-1" d="M244.55,102.1c-.27-1.06-.52-2.08-.79-3.09-.1-.36,0-.54.35-.7a31.51,31.51,0,0,1,7.17-2.15,25,25,0,0,1,6.35-.27,12.59,12.59,0,0,1,5.44,1.59,7.45,7.45,0,0,1,3.61,5.25,14.15,14.15,0,0,1-.06,5.19q-1.68,9.77-3.39,19.52c-.24,1.34-.49,2.67-.7,4a1,1,0,0,1-.62.86,22.26,22.26,0,0,1-6.12,1.93,35.13,35.13,0,0,1-8.63.43,17.46,17.46,0,0,1-4.74-1c-4.14-1.53-5.84-4.74-5.46-8.85.51-5.48,3.48-9.25,8.33-11.65a32.78,32.78,0,0,1,8.15-2.58,59.47,59.47,0,0,1,6.23-.88l.36,0c.56-.08.57-.08.65-.62.16-1.16.41-2.3.46-3.47a7.26,7.26,0,0,0-.14-1.92,4.33,4.33,0,0,0-2.59-3.13,8.67,8.67,0,0,0-2.84-.67,21.15,21.15,0,0,0-10.22,1.94A2.43,2.43,0,0,1,244.55,102.1Zm15.31,10.8c-1.13.16-2.15.29-3.15.45a30,30,0,0,0-7,1.85c-4.7,2-6.94,5.78-6.9,10.69a4.85,4.85,0,0,0,3.55,4.83,11.47,11.47,0,0,0,3.72.57,16.08,16.08,0,0,0,5.84-.85,1.43,1.43,0,0,0,1.05-1.24c.77-4.44,1.59-8.86,2.39-13.29C259.5,115,259.67,114,259.86,112.9Z"/><path class="cls-1" d="M172.25,102c-2.93-2.55-8.29-2.3-11.39.38a14.17,14.17,0,0,0-3.36,4.41A29,29,0,0,0,155,115a28.64,28.64,0,0,0-.54,5.91,14.48,14.48,0,0,0,.9,5,6.23,6.23,0,0,0,4.64,4.14,8.83,8.83,0,0,0,4.18-.21,13.62,13.62,0,0,0,2.71-1.1,1.76,1.76,0,0,1,.59-.27c.19.09.14.28.18.43.24,1,.43,1.9.69,2.85a.58.58,0,0,1-.29.76,11.48,11.48,0,0,1-1.49.85,16.52,16.52,0,0,1-9.17,1.23,9.9,9.9,0,0,1-8-6.32,16.55,16.55,0,0,1-1.32-6.4,32.62,32.62,0,0,1,3.8-16.32,18.75,18.75,0,0,1,6.87-7.43,15.11,15.11,0,0,1,9.9-2,12,12,0,0,1,3.58,1A6.34,6.34,0,0,1,174,98.25a.39.39,0,0,1,.1.56Z"/><path class="cls-2" d="M222.27,141.5H324.84c.8,0,.85.07.69.85-.06.29-.2.41-.49.39s-.33,0-.5,0H119.7c-.88,0-.87,0-.73-.84,0-.29.16-.42.45-.4H222.27Z"/><path class="cls-1" d="M282.58,161.18a5.26,5.26,0,0,1,2,1.23,3.36,3.36,0,0,1,.95,3.14,5,5,0,0,1-3.84,4.17,10.82,10.82,0,0,1-6.54-.24c-.7-.25-.7-.26-.58-.95.83-4.55,1.67-9.09,2.48-13.64a1.12,1.12,0,0,1,.86-1,10.82,10.82,0,0,1,5.78-.33,4.71,4.71,0,0,1,.75.25,2.8,2.8,0,0,1,1.89,3.28,4.6,4.6,0,0,1-2.94,3.75Zm-3.51,7.63c.25,0,.56,0,.86-.06a3.85,3.85,0,0,0,2.88-1.65,4.64,4.64,0,0,0,.64-2.17,2.32,2.32,0,0,0-2-2.77,13.27,13.27,0,0,0-3.27-.27c-.29,0-.34.15-.38.39-.32,1.92-.64,3.85-1,5.76-.06.35.07.47.37.55A8.19,8.19,0,0,0,279.07,168.81Zm.39-8c.47,0,.85,0,1.23-.08,2.39-.26,3.65-1.57,3.64-3.78a2.05,2.05,0,0,0-1.87-2.23,6.65,6.65,0,0,0-2.91.17.51.51,0,0,0-.44.47c-.16,1-.36,1.92-.54,2.88-.14.72-.27,1.45-.41,2.17-.05.26,0,.42.31.41S279.19,160.8,279.46,160.8Z"/><path class="cls-1" d="M132.33,169.9l1.61-9a3.12,3.12,0,0,0,0-1.14,1.66,1.66,0,0,0-1.4-1.44,4.67,4.67,0,0,0-2.87.36.94.94,0,0,0-.56.75q-.88,5-1.82,9.92c-.09.52-.1.53-.61.53H125.3a5.53,5.53,0,0,1,.19-1.49q1.4-8,2.84-16.06c.21-1.21-.1-1,1.21-1,1,0,1,0,.8.95-.29,1.67-.57,3.34-.85,5a1.57,1.57,0,0,0,0,.32,14.25,14.25,0,0,1,1.93-.53,6.68,6.68,0,0,1,2.56.07,2.72,2.72,0,0,1,2.18,2.44,4.89,4.89,0,0,1,0,1.43c-.51,2.79-1,5.58-1.51,8.38-.06.37-.18.53-.58.51S133,169.9,132.33,169.9Z"/><path class="cls-1" d="M316.69,151.42l-1.93,11.48c.36,0,.46-.29.62-.45,1.51-1.59,3-3.19,4.5-4.8a1.3,1.3,0,0,1,1.18-.5c.42,0,.85,0,1.28,0,.05.3-.18.4-.32.54q-2.43,2.52-4.88,5c-.5.52-.42.45-.11,1l3.39,5.47c.14.21.27.44.45.75h-2.51c-.31,0-.35-.28-.46-.48q-1.45-2.58-2.89-5.18a2.31,2.31,0,0,0-.46-.69,16.25,16.25,0,0,0-.43,2.28c-.22,1.19-.42,2.39-.6,3.59,0,.34-.15.51-.53.49s-1,0-1.55,0c.19-1.15.38-2.22.57-3.29.83-4.74,1.68-9.48,2.51-14.22.19-1.06.17-1.07,1.26-1.06A1.94,1.94,0,0,1,316.69,151.42Z"/><path class="cls-1" d="M211.37,169.85a16.67,16.67,0,0,1-1.86.06c-.32,0-.33-.22-.36-.43-.12-.77-.23-1.55-.34-2.33-.09-.57-.2-1.13-.26-1.7,0-.32-.13-.45-.47-.45-1.63,0-3.25,0-4.87,0-.33,0-.45.17-.57.42-.63,1.31-1.28,2.61-1.88,3.94a.8.8,0,0,1-.93.55c-.41,0-.84,0-1.26,0a1.41,1.41,0,0,1,.27-.72c2.56-5,5.13-10,7.67-15,.24-.47.5-.7,1-.63a3.53,3.53,0,0,0,.86,0c.37,0,.49.13.54.48.17,1.23.38,2.45.57,3.67q.92,5.87,1.82,11.73C211.35,169.54,211.36,169.68,211.37,169.85Zm-4-14c-1.36,2.71-2.67,5.25-4,7.92h4.49c.27,0,.39-.1.35-.38-.06-.47-.1-.95-.16-1.42C207.86,159.94,207.62,158,207.37,155.8Z"/><path class="cls-1" d="M156.75,169.9c.24-1.38.45-2.65.67-3.92.65-3.71,1.32-7.41,1.94-11.12a1,1,0,0,1,.75-.91,9.47,9.47,0,0,1,5.62-.35,3.48,3.48,0,0,1,2.76,4.07,9.62,9.62,0,0,1-.28,1.69,5.13,5.13,0,0,1-3.56,3.52,7.92,7.92,0,0,1-3.25.32c-1.18-.11-1.18-.1-1.4,1.05-.32,1.68-.63,3.37-.95,5.06-.11.59-.12.59-.72.59Zm3.84-8.05a12.2,12.2,0,0,0,2.63,0,3.47,3.47,0,0,0,2.52-1.45,5.29,5.29,0,0,0,.82-4.09,1.84,1.84,0,0,0-1.25-1.44,4.77,4.77,0,0,0-3-.08.62.62,0,0,0-.52.57c-.21,1.25-.46,2.48-.68,3.72C160.93,160,160.76,160.91,160.59,161.85Z"/><path class="cls-1" d="M187.17,169.9c.42-2.32.82-4.55,1.22-6.78.15-.82.3-1.64.43-2.46a3,3,0,0,0,0-.79,1.57,1.57,0,0,0-1.43-1.54,7.31,7.31,0,0,0-3,.22c-.31.08-.33.28-.37.52-.27,1.53-.55,3.05-.82,4.58-.34,1.92-.69,3.84-1,5.77-.06.34-.16.51-.54.49s-1,0-1.55,0c.19-1.09.36-2.12.54-3.15.51-2.84,1-5.67,1.53-8.51.06-.29.09-.54.43-.67a11.53,11.53,0,0,1,6-.63c2,.33,2.95,1.76,2.59,3.88-.49,2.89-1,5.77-1.52,8.66-.06.34-.19.44-.51.43C188.5,169.89,187.88,169.9,187.17,169.9Z"/><path class="cls-1" d="M306.15,169.9l.71-4c.3-1.67.61-3.33.9-5a4,4,0,0,0,.05-.85,1.59,1.59,0,0,0-1.57-1.77,8.17,8.17,0,0,0-2.7.18.68.68,0,0,0-.6.66c-.33,2-.68,3.95-1,5.92-.25,1.41-.48,2.82-.76,4.22-.13.68,0,.6-.7.61h-1.4c.17-1,.32-1.89.48-2.79.52-2.89,1.05-5.77,1.54-8.66a1.15,1.15,0,0,1,.88-1,13.39,13.39,0,0,1,5.3-.54,3.1,3.1,0,0,1,.42.08,2.92,2.92,0,0,1,2.49,3.49c-.1.83-.26,1.65-.41,2.47l-1.11,6.34c-.12.64-.11.64-.75.64Z"/><path class="cls-1" d="M261.88,169.9c.25-1.43.49-2.74.72-4.05.3-1.64.6-3.28.89-4.92a4.1,4.1,0,0,0,.05-.86,1.58,1.58,0,0,0-1.51-1.75,7.53,7.53,0,0,0-2.91.21c-.33.09-.39.3-.43.56q-.6,3.34-1.18,6.69c-.21,1.19-.42,2.39-.64,3.59-.1.53-.11.53-.62.53h-1.48l.49-2.8c.52-2.89,1.05-5.77,1.54-8.66a1.14,1.14,0,0,1,.88-1,13.41,13.41,0,0,1,5.3-.54,2.66,2.66,0,0,1,.49.1,2.84,2.84,0,0,1,2.41,3.34c-.11,1.11-.33,2.21-.53,3.31-.32,1.88-.66,3.76-1,5.63-.11.64-.11.64-.75.64Z"/><path class="cls-1" d="M171.18,159c-.53-1.5-.54-1.2.66-1.62a9.11,9.11,0,0,1,3.88-.48,4.59,4.59,0,0,1,1,.19,2.66,2.66,0,0,1,2,2.84,23.73,23.73,0,0,1-.51,3.24c-.3,1.79-.65,3.57-.94,5.35a1.1,1.1,0,0,1-.82,1,10.22,10.22,0,0,1-5.42.41,2.89,2.89,0,0,1-2.44-3.75,4.56,4.56,0,0,1,2.43-3.27,11.48,11.48,0,0,1,3.89-1.14,10.9,10.9,0,0,1,1.28-.15.46.46,0,0,0,.49-.41.32.32,0,0,1,0-.14q.68-2.68-2.1-2.77a7.94,7.94,0,0,0-2.6.4Zm5.23,3.69a11.48,11.48,0,0,0-3.63.84,3.69,3.69,0,0,0-2.22,3.1,1.74,1.74,0,0,0,1.59,2.14,6.82,6.82,0,0,0,2.84-.16.5.5,0,0,0,.41-.42C175.72,166.34,176.06,164.54,176.41,162.64Z"/><path class="cls-1" d="M245.82,158.91c0-.15-.08-.27-.11-.38-.26-.86-.26-.86.55-1.14a9.28,9.28,0,0,1,4-.54,4.42,4.42,0,0,1,1.51.42,2.71,2.71,0,0,1,1.59,2.37,11.4,11.4,0,0,1-.33,2.91c-.36,2-.75,4.07-1.09,6.12a.82.82,0,0,1-.56.73,10.06,10.06,0,0,1-5.69.5,2.86,2.86,0,0,1-2.42-3.58,4.51,4.51,0,0,1,2.37-3.39,11.44,11.44,0,0,1,3.87-1.18c.4-.06.81-.11,1.21-.15.57-.07.58-.06.71-.59,0-.07,0-.14,0-.21.29-1.64-.37-2.45-2-2.52a7.85,7.85,0,0,0-2.88.44A1.79,1.79,0,0,1,245.82,158.91Zm5.24,3.73a12.22,12.22,0,0,0-3.46.79,3.77,3.77,0,0,0-2.31,2.89,1.85,1.85,0,0,0,1.71,2.43,7.23,7.23,0,0,0,2.62-.17.56.56,0,0,0,.48-.52c.21-1.22.46-2.43.68-3.65A11.31,11.31,0,0,0,251.06,162.64Z"/><path class="cls-1" d="M289.93,159c-.08-.28-.15-.48-.21-.69-.16-.57-.16-.59.36-.77a8.49,8.49,0,0,1,5.05-.49,2.87,2.87,0,0,1,2.35,3.07,21.09,21.09,0,0,1-.48,3.17c-.3,1.81-.65,3.61-.95,5.42a.81.81,0,0,1-.56.73,10,10,0,0,1-5.76.49,2.84,2.84,0,0,1-2.36-3.55,4.56,4.56,0,0,1,2.55-3.49,12.08,12.08,0,0,1,3.75-1.1c.4-.06.81-.12,1.21-.14s.57-.12.63-.52.11-.51.12-.77a1.7,1.7,0,0,0-1.73-2,7.45,7.45,0,0,0-3.24.39Zm5.23,3.69a12.27,12.27,0,0,0-3.42.77,3.8,3.8,0,0,0-2.37,2.92,1.84,1.84,0,0,0,1.67,2.41,7,7,0,0,0,2.69-.16.57.57,0,0,0,.47-.54c.22-1.27.47-2.53.7-3.79A9.51,9.51,0,0,0,295.16,162.64Z"/><path class="cls-1" d="M146,167.94c.08.3.15.52.21.75.18.73.18.75-.55,1a8.63,8.63,0,0,1-4.5.45,4,4,0,0,1-3.36-3.44,9.93,9.93,0,0,1,1.84-7.64,5.27,5.27,0,0,1,5-2.23,3.39,3.39,0,0,1,3.24,3,10.25,10.25,0,0,1,0,2.71c0,.34-.19.47-.54.52-2.35.35-4.71.73-7.06,1.09-.69.11-.7.1-.72.78a4.91,4.91,0,0,0,.16,1.62,2.74,2.74,0,0,0,2.56,2.05,7.42,7.42,0,0,0,3.09-.44Zm-6.17-4.77c2.1-.3,4.08-.59,6.06-.86.24,0,.32-.16.33-.38a7.57,7.57,0,0,0,0-1.78,2.09,2.09,0,0,0-2.17-1.88,3.2,3.2,0,0,0-2.76,1.25A7.32,7.32,0,0,0,139.82,163.17Z"/><path class="cls-1" d="M214,169.9l2-11.39a3.36,3.36,0,0,0-1-.07c-.11,0-.29,0-.33-.06-.18-.29,0-.59,0-.89s.05-.34.29-.33h.21c1,0,1,0,1.2-1a17.61,17.61,0,0,1,.38-1.75,4.38,4.38,0,0,1,4.45-3.12c.32,0,.44.12.38.43s-.07.38-.09.56-.15.32-.37.35a2.64,2.64,0,0,0-2.33,2.27,17.27,17.27,0,0,0-.39,2.19c.69.12,1.36,0,2,.07,0,0,.09.08.09.11-.16,1.41,0,1.13-1.21,1.14s-1.11,0-1.3,1.09c-.57,3.29-1.14,6.57-1.72,9.86-.09.51-.09.52-.63.52Z"/><path class="cls-1" d="M119.94,155h-2.57c-.72,0-.73,0-.63-.71,0-.16.06-.33.08-.49a.25.25,0,0,1,.29-.25h8.16a.57.57,0,0,1,.42.08.59.59,0,0,1,0,.19c-.23,1.18-.23,1.18-1.43,1.18-.55,0-1.1,0-1.64,0s-.54.15-.6.51c-.19,1.2-.4,2.4-.6,3.6q-.89,5.15-1.75,10.29c-.09.52-.1.52-.64.52H117.4Z"/><path class="cls-1" d="M240.48,168.15c.17.11.16.27.2.4.29.9.25,1-.69,1.28a6,6,0,0,1-2.69.19,3.26,3.26,0,0,1-2.38-1.67,5.4,5.4,0,0,1-.72-2.59,10.49,10.49,0,0,1,1.59-6.2,5.63,5.63,0,0,1,3.46-2.61,4.59,4.59,0,0,1,3.33.36c.54.3.55.36.26.88a2.79,2.79,0,0,1-.48.73,3.52,3.52,0,0,0-1.41-.47A3.43,3.43,0,0,0,237.7,160a9.46,9.46,0,0,0-1.39,3.94,7,7,0,0,0,0,2.63,2.28,2.28,0,0,0,3.11,1.92C239.79,168.39,240.14,168.26,240.48,168.15Z"/><path class="cls-1" d="M228.44,156.67a9.33,9.33,0,0,1-.75,1.6c-.08.17-.22.11-.37.08a4.72,4.72,0,0,0-2,0,.86.86,0,0,0-.75.8c-.38,2.21-.78,4.41-1.18,6.62-.2,1.12-.4,2.25-.61,3.37-.1.55-.11.55-.69.56H220.7c.17-.94.31-1.81.46-2.67.52-2.91,1.05-5.82,1.57-8.72,0-.19.08-.38.11-.57s.13-.27.3-.34A13.35,13.35,0,0,1,228.44,156.67Z"/><path class="cls-1" d="M232.53,157.16l-.83,5-1.26,7.24c-.09.52-.09.53-.62.53h-1.38a4.68,4.68,0,0,1,.17-1.55c.6-3.54,1.22-7.08,1.82-10.62.1-.56.1-.56.67-.57Z"/><path class="cls-1" d="M232.52,152.43a1.06,1.06,0,0,1,1,.64.93.93,0,0,1-.32,1.09,1.46,1.46,0,0,1-.94.44,1.05,1.05,0,0,1-1.13-.68,1.07,1.07,0,0,1,.44-1.19A1.46,1.46,0,0,1,232.52,152.43Z"/><path class="cls-3" d="M230.47,109.93a33.1,33.1,0,0,1-3.31,13.85,14.33,14.33,0,0,1-3,4,11.08,11.08,0,0,1-7.56,2.93,14.86,14.86,0,0,1-4-.39c-1.32-.35-1.34-.39-1.1-1.72l3.69-20.83c.38-2.11.76-4.22,1.12-6.33a.72.72,0,0,1,.44-.59,12.53,12.53,0,0,1,7.59-1.1,6.75,6.75,0,0,1,5.34,4.65A15,15,0,0,1,230.47,109.93Z"/><path class="cls-3" d="M179.46,120.71a42.38,42.38,0,0,1,2.75-13.29,14.29,14.29,0,0,1,3.52-5.41,8.06,8.06,0,0,1,6.94-2.09,5.27,5.27,0,0,1,4.25,3.42,12.18,12.18,0,0,1,.83,4.26,30.58,30.58,0,0,1-.54,6.61,47.19,47.19,0,0,1-1.85,7.7,18.8,18.8,0,0,1-2.3,4.59,8.55,8.55,0,0,1-6,3.81,8.09,8.09,0,0,1-3.06-.13,5.25,5.25,0,0,1-3.63-3.07,12.94,12.94,0,0,1-.95-5C179.44,121.73,179.46,121.3,179.46,120.71Z"/><path class="cls-3" d="M207.37,155.8c.25,2.16.49,4.14.72,6.13.06.47.1.95.16,1.42,0,.28-.08.38-.35.38h-4.49C204.7,161.05,206,158.51,207.37,155.8Z"/><path class="cls-3" d="M160.59,161.85c.17-.94.34-1.84.51-2.75.22-1.24.47-2.47.68-3.72a.62.62,0,0,1,.52-.57,4.77,4.77,0,0,1,3,.08,1.84,1.84,0,0,1,1.25,1.44,5.29,5.29,0,0,1-.82,4.09,3.47,3.47,0,0,1-2.52,1.45A12.2,12.2,0,0,1,160.59,161.85Z"/></svg>